<svg width="243" height="253" viewBox="0 0 243 253" fill="none" xmlns="http://www.w3.org/2000/svg">
<rect x="1" width="239" height="250" rx="13" fill="#A1D2FF"/>
<path d="M19.2913 247.991C56.8374 202.384 40.1502 174.512 27.1134 166.278C37.8327 158.017 52.061 155.219 66.9169 155.601C-36.6931 99.8928 12.6923 13.2148 6.13601 0C85.1986 85.4402 129.048 142.771 144.041 180.622C144.981 181.616 145.306 182.402 144.919 182.904C166.841 241.681 116.514 251.905 19.2913 247.991Z" fill="#BFECFF"/>
<path d="M218.263 2.36142C181.573 48.6604 198.776 76.2163 211.964 84.2069C201.401 92.6654 187.227 95.7282 172.366 95.6232C276.996 149.392 229.233 236.975 236.034 250.066C155.394 166.112 110.485 109.608 94.7898 72.0426C93.8311 71.0663 93.4915 70.2859 93.8693 69.7765C70.857 11.4183 120.985 0.258898 218.263 2.36142Z" fill="#BFECFF"/>
</svg>
