<svg width="12" height="12" viewBox="0 0 12 12" fill="none" xmlns="http://www.w3.org/2000/svg">
<path d="M11.4538 5.80484L11.4537 5.80488L11.4575 5.81409C11.5075 5.93582 11.5075 6.07236 11.4575 6.19409L11.4574 6.19405L11.4538 6.20334C11.4306 6.26331 11.396 6.31821 11.3519 6.36506L6.35644 11.3605L6.355 11.362C6.30852 11.4089 6.25321 11.4461 6.19229 11.4714C6.13136 11.4968 6.06601 11.5099 6 11.5099C5.93399 11.5099 5.86864 11.4968 5.80771 11.4714C5.74679 11.4461 5.69148 11.4089 5.645 11.362L5.6421 11.3591C5.59524 11.3126 5.55804 11.2573 5.53266 11.1964C5.50727 11.1354 5.4942 11.0701 5.4942 11.0041C5.4942 10.9381 5.50727 10.8727 5.53266 10.8118C5.55804 10.7509 5.59524 10.6956 5.6421 10.6491L5.64302 10.6482L8.94302 7.35818L9.7997 6.50409H8.59H1C0.867392 6.50409 0.740215 6.45141 0.646447 6.35765C0.552678 6.26388 0.5 6.1367 0.5 6.00409C0.5 5.87148 0.552678 5.74431 0.646447 5.65054C0.740215 5.55677 0.867392 5.50409 1 5.50409H8.59H9.7997L8.94302 4.65L5.64355 1.36054C5.6435 1.36048 5.64345 1.36043 5.64339 1.36038C5.54896 1.26586 5.49591 1.13771 5.49591 1.00409C5.49591 0.937892 5.50895 0.872342 5.53428 0.811184C5.55961 0.750026 5.59674 0.694455 5.64355 0.647645C5.73809 0.553109 5.86631 0.5 6 0.5C6.0662 0.5 6.13175 0.513039 6.19291 0.538372C6.25407 0.563705 6.30964 0.600836 6.35645 0.647645L6.70831 0.295783L6.35645 0.647645L11.3519 5.64312C11.396 5.68997 11.4306 5.74488 11.4538 5.80484Z" stroke="#5C5C5C"/>
</svg>
