<svg width="100" height="125" viewBox="0 0 100 125" fill="none" xmlns="http://www.w3.org/2000/svg">
<path d="M75.8333 92.6428C64.8333 120.597 65 122.908 59.8333 118.749C54.6666 114.591 52.6666 110.894 63.8333 83.1706C75 55.4471 78.1666 55.6781 83.3333 59.8366C88.3333 63.7641 86.8333 64.9193 75.8333 92.6428Z" fill="#E27373"/>
<path d="M86.1666 100.96C79.1666 118.749 70.5 127.297 66.3333 124.063C61.1666 119.904 63.8333 119.904 74.8333 91.9497C85.8333 63.9952 84.5 60.7608 89.6666 64.9193C93.8333 68.1537 93.1666 83.1706 86.1666 100.96Z" fill="#BFECFF"/>
<path d="M24.1667 92.6428C35.1667 120.597 35 122.908 40.1667 118.749C45.3333 114.591 47.3333 110.894 36.1667 83.1706C25 55.4471 21.8333 55.6781 16.6667 59.8366C11.6667 63.7641 13.1667 64.9193 24.1667 92.6428Z" fill="#E27373"/>
<path d="M17.1667 101.224C24.1667 119.014 32.8333 127.562 37 124.327C42.1667 120.169 39.5 120.169 28.5 92.2143C17.5 64.2597 18.8333 61.0253 13.6667 65.1838C9.49998 68.4183 10.1667 83.4352 17.1667 101.224Z" fill="#BFECFF"/>
<path d="M15.5 121.753C15.5 121.753 24.5 124.987 25.1667 121.753C29.3333 103.039 6.16667 91.9497 6.16667 70.695C6.16667 36.5026 25.8333 8.77912 50 8.77912C74.1667 8.77912 93.8333 36.5026 93.8333 70.695C93.8333 91.9497 70.6667 103.039 74.8333 121.753C75.5 124.987 84.5 121.753 84.5 121.753C94 108.815 100 90.7946 100 70.695C100 31.651 77.6667 0 50 0C22.3333 0 0 31.651 0 70.695C0 90.7946 6 108.815 15.5 121.753Z" fill="#00AD97" fill-opacity="0.68"/>
<path d="M21.5 29.1097C27.3334 27.4925 34.8333 15.941 50 15.941C65.1667 15.941 72.8333 27.7235 78.5 29.1097C80.8333 29.8028 84.8334 24.7201 84.8334 24.7201C75.6667 10.1653 64.8333 2.77234 50 2.77234C35.1667 2.77234 24.3334 10.1653 15.1667 24.7201C15.1667 24.9512 19.1667 29.8028 21.5 29.1097Z" fill="#E27373"/>
</svg>
