<svg width="97" height="123" viewBox="0 0 97 123" fill="none" xmlns="http://www.w3.org/2000/svg">
<path d="M73.5583 90.9085C62.8883 118.34 63.05 120.607 58.0383 116.526C53.0267 112.445 51.0867 108.818 61.9183 81.6136C72.75 54.4091 75.8217 54.6358 80.8333 58.7165C85.6833 62.5705 84.2283 63.704 73.5583 90.9085Z" fill="#454749"/>
<path d="M83.5816 99.0699C76.7916 116.526 68.385 124.914 64.3433 121.74C59.3316 117.66 61.9183 117.66 72.5883 90.2285C83.2583 62.7972 81.965 59.6233 86.9766 63.704C91.0183 66.8779 90.3716 81.6137 83.5816 99.0699Z" fill="#C61313"/>
<path d="M23.4417 90.9085C34.1117 118.34 33.95 120.607 38.9617 116.526C43.9734 112.445 45.9133 108.818 35.0817 81.6136C24.25 54.4091 21.1783 54.6358 16.1667 58.7165C11.3167 62.5705 12.7717 63.704 23.4417 90.9085Z" fill="#454749"/>
<path d="M16.6517 99.3295C23.4417 116.786 31.8483 125.174 35.89 122C40.9017 117.919 38.315 117.919 27.645 90.488C16.975 63.0568 18.2683 59.8829 13.2567 63.9636C9.21499 67.1375 9.86166 81.8733 16.6517 99.3295Z" fill="#C61313"/>
<path d="M15.035 119.473C15.035 119.473 23.765 122.647 24.4117 119.473C28.4533 101.11 5.98167 90.2284 5.98167 69.3716C5.98167 35.8193 25.0583 8.61477 48.5 8.61477C71.9417 8.61477 91.0183 35.8193 91.0183 69.3716C91.0183 90.2284 68.5467 101.11 72.5883 119.473C73.235 122.647 81.965 119.473 81.965 119.473C91.18 106.778 97 89.0949 97 69.3716C97 31.0585 75.3367 0 48.5 0C21.6633 0 0 31.0585 0 69.3716C0 89.0949 5.82 106.778 15.035 119.473Z" fill="#AD0015"/>
<path d="M20.855 28.5648C26.5133 26.9778 33.7883 15.6426 48.5 15.6426C63.2117 15.6426 70.6483 27.2045 76.145 28.5648C78.4083 29.2449 82.2883 24.2574 82.2883 24.2574C73.3967 9.97499 62.8883 2.72044 48.5 2.72044C34.1117 2.72044 23.6033 9.97499 14.7117 24.2574C14.7117 24.4841 18.5917 29.2449 20.855 28.5648Z" fill="#454749"/>
</svg>
