<svg width="122" height="18" viewBox="0 0 122 18" fill="none" xmlns="http://www.w3.org/2000/svg">
<path d="M7.00493 3.0984C7.76144 1.14193 8.1397 0.162474 8.7548 0.0267439C8.9164 -0.00891464 9.08341 -0.00891464 9.24501 0.0267439C9.85893 0.161251 10.2384 1.14071 10.9949 3.0984C11.425 4.21114 11.6394 4.76751 12.0424 5.14658C12.1556 5.25296 12.2781 5.34712 12.4077 5.42782C12.8732 5.72007 13.4541 5.77387 14.616 5.88148C16.5827 6.06489 17.5655 6.15538 17.8659 6.73743C17.9281 6.85807 17.9703 6.98869 17.9908 7.12383C18.091 7.77558 17.3675 8.45668 15.9216 9.82254L15.521 10.2016C14.8446 10.8399 14.5076 11.159 14.312 11.5565C14.1941 11.7952 14.1152 12.0527 14.0787 12.3183C14.0174 12.7597 14.1164 13.2231 14.3143 14.1488L14.385 14.4789C14.7397 16.1395 14.9177 16.9698 14.6961 17.3769C14.5982 17.5573 14.4577 17.7089 14.2879 17.8176C14.1181 17.9262 13.9244 17.9884 13.7252 17.9981C13.275 18.0214 12.6399 17.4846 11.3684 16.4097C10.5318 15.7017 10.1135 15.3483 9.64918 15.2102C9.22487 15.084 8.77494 15.084 8.35063 15.2102C7.88635 15.3483 7.46685 15.7017 6.63021 16.4097C5.35993 17.4833 4.72479 18.0214 4.27348 17.9994C4.07428 17.9892 3.88081 17.9268 3.7112 17.818C3.54158 17.7091 3.40137 17.5574 3.30368 17.3769C3.08215 16.9698 3.26008 16.1395 3.61477 14.4789L3.68547 14.1488C3.88344 13.2231 3.98242 12.7597 3.92115 12.3183C3.88416 12.0528 3.80534 11.7954 3.68783 11.5565C3.49222 11.159 3.15521 10.8399 2.47882 10.2016L2.07818 9.82254C0.632324 8.4579 -0.0900145 7.77558 0.00896831 7.12383C0.02948 6.98869 0.0717019 6.85807 0.133875 6.73743C0.434359 6.15538 1.4183 6.06489 3.38381 5.88148C4.54568 5.77387 5.12661 5.72007 5.59089 5.42904C5.72116 5.34735 5.8435 5.25275 5.95618 5.14658C6.36036 4.76751 6.57483 4.21114 7.00493 3.0984Z" fill="#F8E329"/>
<path d="M33.0049 3.0984C33.7614 1.14193 34.1397 0.162474 34.7548 0.0267439C34.9164 -0.00891464 35.0834 -0.00891464 35.245 0.0267439C35.8589 0.161251 36.2384 1.14071 36.9949 3.0984C37.425 4.21114 37.6394 4.76751 38.0424 5.14658C38.1556 5.25296 38.2781 5.34712 38.4077 5.42782C38.8732 5.72007 39.4541 5.77387 40.616 5.88148C42.5827 6.06489 43.5655 6.15538 43.8659 6.73743C43.9281 6.85807 43.9703 6.98869 43.9908 7.12383C44.091 7.77558 43.3675 8.45668 41.9216 9.82254L41.521 10.2016C40.8446 10.8399 40.5076 11.159 40.312 11.5565C40.1941 11.7952 40.1152 12.0527 40.0787 12.3183C40.0174 12.7597 40.1164 13.2231 40.3143 14.1488L40.385 14.4789C40.7397 16.1395 40.9177 16.9698 40.6961 17.3769C40.5982 17.5573 40.4577 17.7089 40.2879 17.8176C40.1181 17.9262 39.9244 17.9884 39.7252 17.9981C39.275 18.0214 38.6399 17.4846 37.3684 16.4097C36.5318 15.7017 36.1135 15.3483 35.6492 15.2102C35.2249 15.084 34.7749 15.084 34.3506 15.2102C33.8863 15.3483 33.4669 15.7017 32.6302 16.4097C31.3599 17.4833 30.7248 18.0214 30.2735 17.9994C30.0743 17.9892 29.8808 17.9268 29.7112 17.818C29.5416 17.7091 29.4014 17.5574 29.3037 17.3769C29.0821 16.9698 29.2601 16.1395 29.6148 14.4789L29.6855 14.1488C29.8834 13.2231 29.9824 12.7597 29.9211 12.3183C29.8842 12.0528 29.8053 11.7954 29.6878 11.5565C29.4922 11.159 29.1552 10.8399 28.4788 10.2016L28.0782 9.82254C26.6323 8.4579 25.91 7.77558 26.009 7.12383C26.0295 6.98869 26.0717 6.85807 26.1339 6.73743C26.4344 6.15538 27.4183 6.06489 29.3838 5.88148C30.5457 5.77387 31.1266 5.72007 31.5909 5.42904C31.7212 5.34735 31.8435 5.25275 31.9562 5.14658C32.3604 4.76751 32.5748 4.21114 33.0049 3.0984Z" fill="#F8E329"/>
<path d="M59.0049 3.0984C59.7614 1.14193 60.1397 0.162474 60.7548 0.0267439C60.9164 -0.00891464 61.0834 -0.00891464 61.245 0.0267439C61.8589 0.161251 62.2384 1.14071 62.9949 3.0984C63.425 4.21114 63.6394 4.76751 64.0424 5.14658C64.1556 5.25296 64.2781 5.34712 64.4077 5.42782C64.8732 5.72007 65.4541 5.77387 66.616 5.88148C68.5827 6.06489 69.5655 6.15538 69.8659 6.73743C69.9281 6.85807 69.9703 6.98869 69.9908 7.12383C70.091 7.77558 69.3675 8.45668 67.9216 9.82254L67.521 10.2016C66.8446 10.8399 66.5076 11.159 66.312 11.5565C66.1941 11.7952 66.1152 12.0527 66.0787 12.3183C66.0174 12.7597 66.1164 13.2231 66.3143 14.1488L66.385 14.4789C66.7397 16.1395 66.9177 16.9698 66.6961 17.3769C66.5982 17.5573 66.4577 17.7089 66.2879 17.8176C66.1181 17.9262 65.9244 17.9884 65.7252 17.9981C65.275 18.0214 64.6399 17.4846 63.3684 16.4097C62.5318 15.7017 62.1135 15.3483 61.6492 15.2102C61.2249 15.084 60.7749 15.084 60.3506 15.2102C59.8863 15.3483 59.4669 15.7017 58.6302 16.4097C57.3599 17.4833 56.7248 18.0214 56.2735 17.9994C56.0743 17.9892 55.8808 17.9268 55.7112 17.818C55.5416 17.7091 55.4014 17.5574 55.3037 17.3769C55.0821 16.9698 55.2601 16.1395 55.6148 14.4789L55.6855 14.1488C55.8834 13.2231 55.9824 12.7597 55.9211 12.3183C55.8842 12.0528 55.8053 11.7954 55.6878 11.5565C55.4922 11.159 55.1552 10.8399 54.4788 10.2016L54.0782 9.82254C52.6323 8.4579 51.91 7.77558 52.009 7.12383C52.0295 6.98869 52.0717 6.85807 52.1339 6.73743C52.4344 6.15538 53.4183 6.06489 55.3838 5.88148C56.5457 5.77387 57.1266 5.72007 57.5909 5.42904C57.7212 5.34735 57.8435 5.25275 57.9562 5.14658C58.3604 4.76751 58.5748 4.21114 59.0049 3.0984Z" fill="#F8E329"/>
<path d="M85.0049 3.0984C85.7614 1.14193 86.1397 0.162474 86.7548 0.0267439C86.9164 -0.00891464 87.0834 -0.00891464 87.245 0.0267439C87.8589 0.161251 88.2384 1.14071 88.9949 3.0984C89.425 4.21114 89.6394 4.76751 90.0424 5.14658C90.1556 5.25296 90.2781 5.34712 90.4077 5.42782C90.8732 5.72007 91.4541 5.77387 92.616 5.88148C94.5827 6.06489 95.5655 6.15538 95.8659 6.73743C95.9281 6.85807 95.9703 6.98869 95.9908 7.12383C96.091 7.77558 95.3675 8.45668 93.9216 9.82254L93.521 10.2016C92.8446 10.8399 92.5076 11.159 92.312 11.5565C92.1941 11.7952 92.1152 12.0527 92.0787 12.3183C92.0174 12.7597 92.1164 13.2231 92.3143 14.1488L92.385 14.4789C92.7397 16.1395 92.9177 16.9698 92.6961 17.3769C92.5982 17.5573 92.4577 17.7089 92.2879 17.8176C92.1181 17.9262 91.9244 17.9884 91.7252 17.9981C91.275 18.0214 90.6399 17.4846 89.3684 16.4097C88.5318 15.7017 88.1135 15.3483 87.6492 15.2102C87.2249 15.084 86.7749 15.084 86.3506 15.2102C85.8863 15.3483 85.4669 15.7017 84.6302 16.4097C83.3599 17.4833 82.7248 18.0214 82.2735 17.9994C82.0743 17.9892 81.8808 17.9268 81.7112 17.818C81.5416 17.7091 81.4014 17.5574 81.3037 17.3769C81.0821 16.9698 81.2601 16.1395 81.6148 14.4789L81.6855 14.1488C81.8834 13.2231 81.9824 12.7597 81.9211 12.3183C81.8842 12.0528 81.8053 11.7954 81.6878 11.5565C81.4922 11.159 81.1552 10.8399 80.4788 10.2016L80.0782 9.82254C78.6323 8.4579 77.91 7.77558 78.009 7.12383C78.0295 6.98869 78.0717 6.85807 78.1339 6.73743C78.4344 6.15538 79.4183 6.06489 81.3838 5.88148C82.5457 5.77387 83.1266 5.72007 83.5909 5.42904C83.7212 5.34735 83.8435 5.25275 83.9562 5.14658C84.3604 4.76751 84.5748 4.21114 85.0049 3.0984Z" fill="#F8E329"/>
<path d="M111.005 3.0984C111.761 1.14193 112.14 0.162474 112.755 0.0267439C112.916 -0.00891464 113.083 -0.00891464 113.245 0.0267439C113.859 0.161251 114.238 1.14071 114.995 3.0984C115.425 4.21114 115.639 4.76751 116.042 5.14658C116.156 5.25296 116.278 5.34712 116.408 5.42782C116.873 5.72007 117.454 5.77387 118.616 5.88148C120.583 6.06489 121.565 6.15538 121.866 6.73743C121.928 6.85807 121.97 6.98869 121.991 7.12383C122.091 7.77558 121.367 8.45668 119.922 9.82254L119.521 10.2016C118.845 10.8399 118.508 11.159 118.312 11.5565C118.194 11.7952 118.115 12.0527 118.079 12.3183C118.017 12.7597 118.116 13.2231 118.314 14.1488L118.385 14.4789C118.74 16.1395 118.918 16.9698 118.696 17.3769C118.598 17.5573 118.458 17.7089 118.288 17.8176C118.118 17.9262 117.924 17.9884 117.725 17.9981C117.275 18.0214 116.64 17.4846 115.368 16.4097C114.532 15.7017 114.113 15.3483 113.649 15.2102C113.225 15.084 112.775 15.084 112.351 15.2102C111.886 15.3483 111.467 15.7017 110.63 16.4097C109.36 17.4833 108.725 18.0214 108.273 17.9994C108.074 17.9892 107.881 17.9268 107.711 17.818C107.542 17.7091 107.401 17.5574 107.304 17.3769C107.082 16.9698 107.26 16.1395 107.615 14.4789L107.685 14.1488C107.883 13.2231 107.982 12.7597 107.921 12.3183C107.884 12.0528 107.805 11.7954 107.688 11.5565C107.492 11.159 107.155 10.8399 106.479 10.2016L106.078 9.82254C104.632 8.4579 103.91 7.77558 104.009 7.12383C104.029 6.98869 104.072 6.85807 104.134 6.73743C104.434 6.15538 105.418 6.06489 107.384 5.88148C108.546 5.77387 109.127 5.72007 109.591 5.42904C109.721 5.34735 109.843 5.25275 109.956 5.14658C110.36 4.76751 110.575 4.21114 111.005 3.0984Z" fill="#F8E329"/>
</svg>
