<svg width="22" height="22" viewBox="0 0 22 22" fill="none" xmlns="http://www.w3.org/2000/svg">
<path d="M11 12.2066C10.0275 12.2066 9.09489 12.5868 8.40726 13.2634C7.71962 13.9401 7.33331 14.8578 7.33331 15.8147C7.33331 16.7716 7.71962 17.6894 8.40726 18.366C9.09489 19.0427 10.0275 19.4228 11 19.4228C11.9724 19.4228 12.9051 19.0427 13.5927 18.366C14.2803 17.6894 14.6666 16.7716 14.6666 15.8147C14.6666 14.8578 14.2803 13.9401 13.5927 13.2634C12.9051 12.5868 11.9724 12.2066 11 12.2066ZM9.42855 15.8147C9.42855 15.4046 9.59411 15.0113 9.88881 14.7213C10.1835 14.4313 10.5832 14.2684 11 14.2684C11.4167 14.2684 11.8164 14.4313 12.1111 14.7213C12.4058 15.0113 12.5714 15.4046 12.5714 15.8147C12.5714 16.2248 12.4058 16.6181 12.1111 16.9081C11.8164 17.1981 11.4167 17.361 11 17.361C10.5832 17.361 10.1835 17.1981 9.88881 16.9081C9.59411 16.6181 9.42855 16.2248 9.42855 15.8147Z" fill="#111111"/>
<path d="M16.7891 4.59463L13.4588 0L1.21314 9.62635L0.534286 9.61914V9.62945H0V22H22V9.62945H20.9922L18.987 3.85755L16.7891 4.59463ZM18.7786 9.62945H8.27305L16.0977 7.00483L17.6922 6.50279L18.7786 9.62945ZM14.719 5.28944L6.64191 7.99859L13.0387 2.96996L14.719 5.28944ZM2.09524 18.0507V13.5767C2.53722 13.4226 2.93868 13.1733 3.27035 12.8471C3.60201 12.521 3.85552 12.126 4.01238 11.6912H17.9876C18.1444 12.1262 18.3979 12.5213 18.7295 12.8476C19.0612 13.174 19.4627 13.4234 19.9048 13.5777V18.0517C19.4627 18.206 19.0612 18.4554 18.7295 18.7818C18.3979 19.1082 18.1444 19.5032 17.9876 19.9382H4.01448C3.85753 19.5029 3.60377 19.1075 3.27174 18.7809C2.9397 18.4544 2.53775 18.2049 2.09524 18.0507Z" fill="#111111"/>
</svg>
